# This file uses centimeters as units for non-parametric coordinates.

g default
v 6.125455 3.224866 -2.537242
v 4.688221 3.224866 -4.688216
v 2.537249 3.224866 -6.125451
v 0.000003 3.224866 -6.630142
v -2.537243 3.224866 -6.125454
v -4.688217 3.224866 -4.688221
v -6.125452 3.224866 -2.537248
v -6.630143 3.224866 -0.000002
v -6.125454 3.224866 2.537244
v -4.688220 3.224866 4.688218
v -2.537247 3.224866 6.125453
v -0.000001 3.224866 6.630143
v 2.537245 3.224866 6.125453
v 4.688218 3.224866 4.688219
v 6.125453 3.224866 2.537246
v 6.630143 3.224866 0.000000
v 6.125455 25.600092 -2.537242
v 4.688221 25.600092 -4.688216
v 2.537249 25.600092 -6.125451
v 0.000003 25.600092 -6.630142
v -2.537243 25.600092 -6.125454
v -4.688217 25.600092 -4.688221
v -6.125452 25.600092 -2.537248
v -6.630143 25.600092 -0.000002
v -6.125454 25.600092 2.537244
v -4.688220 25.600092 4.688218
v -2.537247 25.600092 6.125453
v -0.000001 25.600092 6.630143
v 2.537245 25.600092 6.125453
v 4.688218 25.600092 4.688219
v 6.125453 25.600092 2.537246
v 6.630143 25.600092 0.000000
vt 0.004645 0.220614
vt 0.066525 0.220614
vt 0.128403 0.220614
vt 0.190283 0.220614
vt 0.252162 0.220614
vt 0.314041 0.220614
vt 0.375920 0.220614
vt 0.437800 0.220614
vt 0.499678 0.220614
vt 0.561558 0.220614
vt 0.623437 0.220614
vt 0.685316 0.220614
vt 0.747195 0.220614
vt 0.809075 0.220614
vt 0.870953 0.220614
vt 0.932833 0.220614
vt 0.994712 0.220614
vt 0.004645 0.755823
vt 0.066525 0.755823
vt 0.128403 0.755823
vt 0.190283 0.755823
vt 0.252162 0.755823
vt 0.314041 0.755823
vt 0.375920 0.755823
vt 0.437800 0.755823
vt 0.499678 0.755823
vt 0.561558 0.755823
vt 0.623437 0.755823
vt 0.685316 0.755823
vt 0.747195 0.755823
vt 0.809075 0.755823
vt 0.870953 0.755823
vt 0.932833 0.755823
vt 0.994712 0.755823
vn 0.923880 0.000000 -0.382683
vn 0.707107 0.000000 -0.707106
vn 0.707107 0.000000 -0.707106
vn 0.923880 0.000000 -0.382683
vn 0.382684 0.000000 -0.923879
vn 0.382684 0.000000 -0.923879
vn 0.000001 0.000000 -1.000000
vn 0.000001 0.000000 -1.000000
vn -0.382683 0.000000 -0.923880
vn -0.382683 0.000000 -0.923880
vn -0.707107 0.000000 -0.707107
vn -0.707107 0.000000 -0.707107
vn -0.923879 0.000000 -0.382684
vn -0.923879 0.000000 -0.382684
vn -1.000000 0.000000 -0.000000
vn -1.000000 0.000000 -0.000000
vn -0.923880 0.000000 0.382683
vn -0.923880 0.000000 0.382683
vn -0.707107 0.000000 0.707107
vn -0.707107 0.000000 0.707107
vn -0.382684 0.000000 0.923879
vn -0.382684 0.000000 0.923879
vn -0.000000 0.000000 1.000000
vn -0.000000 0.000000 1.000000
vn 0.382683 0.000000 0.923880
vn 0.382683 0.000000 0.923880
vn 0.707107 0.000000 0.707107
vn 0.707107 0.000000 0.707107
vn 0.923880 0.000000 0.382684
vn 0.923880 0.000000 0.382684
vn 1.000000 0.000000 0.000000
vn 1.000000 0.000000 0.000000
g pCylinder1
f 1/1/1 2/2/2 18/19/3 17/18/4
f 2/2/2 3/3/5 19/20/6 18/19/3
f 3/3/5 4/4/7 20/21/8 19/20/6
f 4/4/7 5/5/9 21/22/10 20/21/8
f 5/5/9 6/6/11 22/23/12 21/22/10
f 6/6/11 7/7/13 23/24/14 22/23/12
f 7/7/13 8/8/15 24/25/16 23/24/14
f 8/8/15 9/9/17 25/26/18 24/25/16
f 9/9/17 10/10/19 26/27/20 25/26/18
f 10/10/19 11/11/21 27/28/22 26/27/20
f 11/11/21 12/12/23 28/29/24 27/28/22
f 12/12/23 13/13/25 29/30/26 28/29/24
f 13/13/25 14/14/27 30/31/28 29/30/26
f 14/14/27 15/15/29 31/32/30 30/31/28
f 15/15/29 16/16/31 32/33/32 31/32/30
f 16/16/31 1/17/1 17/34/4 32/33/32
