# This file uses centimeters as units for non-parametric coordinates.

g default
v 1.753616 0.000001 -1.753616
v -0.000000 0.000001 -2.479996
v -1.753616 0.000001 -1.753616
v -2.479996 0.000001 -0.000000
v -1.753616 0.000001 1.753616
v -0.000000 0.000001 2.479996
v 1.753616 0.000001 1.753616
v 2.479996 0.000001 -0.000000
v 1.753616 15.848267 -1.753616
v -0.000000 15.848267 -2.479996
v -1.753616 15.848267 -1.753616
v -2.479996 15.848267 -0.000000
v -1.753616 15.848267 1.753616
v -0.000000 15.848267 2.479996
v 1.753616 15.848267 1.753616
v 2.479996 15.848267 -0.000000
v 0.000000 0.000001 0.000000
v 0.000000 15.848267 0.000000
v -2.284042 15.848267 0.946091
v -0.946091 15.848267 2.284042
v 0.946091 15.848267 2.284042
v 2.284042 15.848267 0.946091
v 2.284042 15.848267 -0.946091
v 0.203352 -0.000000 -0.203352
v 0.000000 -0.000000 -0.287582
v -0.203352 -0.000000 -0.203352
v -0.287582 -0.000000 0.000000
v -0.203352 -0.000000 0.203352
v 0.000000 -0.000000 0.287582
v 0.203352 -0.000000 0.203352
v 0.287582 -0.000000 0.000000
v 0.000000 15.848267 -0.287582
v 0.203352 15.848267 -0.203352
v -0.203352 15.848267 -0.203352
v -0.287582 15.848267 0.000000
v -0.203352 15.848267 0.203352
v 0.000000 15.848267 0.287582
v 0.203352 15.848267 0.203352
v 0.287582 15.848267 0.000000
v 0.946091 0.000001 -2.284042
v -0.946091 0.000001 -2.284042
v -2.284042 0.000001 -0.946091
v -2.284042 0.000001 0.946091
v -0.946091 0.000001 2.284042
v 0.946091 0.000001 2.284042
v 2.284042 0.000001 0.946091
v 2.284042 0.000001 -0.946091
v 0.946091 15.848267 -2.284042
v -0.946091 15.848267 -2.284042
v -2.284042 15.848267 -0.946091
v 0.126813 -0.000000 -0.306154
v -0.126813 -0.000000 -0.306154
v -0.306154 -0.000000 -0.126813
v -0.306154 -0.000000 0.126813
v -0.126813 -0.000000 0.306154
v 0.126813 -0.000000 0.306154
v 0.306154 -0.000000 0.126813
v 0.306154 -0.000000 -0.126813
v 0.126813 15.848267 -0.306154
v -0.126813 15.848267 -0.306154
v -0.306154 15.848267 -0.126813
v -0.306154 15.848267 0.126813
v -0.126813 15.848267 0.306154
v 0.126813 15.848267 0.306154
v 0.306154 15.848267 0.126813
v 0.306154 15.848267 -0.126813
vt 0.987813 0.385589
vt 0.008354 0.011005
vt 0.932742 0.011005
vt 0.966660 0.377405
vt 0.123903 0.011005
vt 0.945916 0.386576
vt 0.239451 0.011005
vt 0.937732 0.407729
vt 0.355000 0.011005
vt 0.946903 0.428474
vt 0.470548 0.011005
vt 0.968056 0.436658
vt 0.586097 0.011005
vt 0.988800 0.427487
vt 0.701645 0.011005
vt 0.996984 0.406334
vt 0.817194 0.011005
vt 0.008354 0.958688
vt 0.988885 0.552597
vt 0.932742 0.958688
vt 0.123903 0.958688
vt 0.968179 0.561854
vt 0.239451 0.958688
vt 0.946992 0.553758
vt 0.355000 0.958689
vt 0.937735 0.533052
vt 0.470548 0.958688
vt 0.945831 0.511865
vt 0.586097 0.958688
vt 0.966537 0.502608
vt 0.701645 0.958688
vt 0.987724 0.510704
vt 0.817194 0.958689
vt 0.996981 0.531410
vt 0.967358 0.407032
vt 0.967358 0.532231
vt 0.968787 0.403339
vt 0.965757 0.403410
vt 0.963665 0.405603
vt 0.963736 0.408633
vt 0.965929 0.410725
vt 0.968959 0.410653
vt 0.971051 0.408460
vt 0.970980 0.405430
vt 0.968974 0.535846
vt 0.965944 0.535930
vt 0.963743 0.533847
vt 0.963659 0.530818
vt 0.965742 0.528616
vt 0.968771 0.528532
vt 0.970973 0.530615
vt 0.971057 0.533644
vt 0.978017 0.379480
vt 0.066129 0.011003
vt 0.955413 0.380012
vt 0.181677 0.011003
vt 0.939806 0.396372
vt 0.297226 0.011003
vt 0.940339 0.418976
vt 0.412774 0.011003
vt 0.956699 0.434583
vt 0.528322 0.011003
vt 0.979303 0.434051
vt 0.643871 0.011003
vt 0.994910 0.417691
vt 0.759419 0.011003
vt 0.994377 0.395087
vt 0.874968 0.011003
vt 0.066129 0.958690
vt 0.979415 0.559200
vt 0.181677 0.958690
vt 0.956813 0.559827
vt 0.297225 0.958690
vt 0.940389 0.544288
vt 0.412774 0.958690
vt 0.939762 0.521686
vt 0.528322 0.958690
vt 0.955301 0.505262
vt 0.643871 0.958690
vt 0.977903 0.504635
vt 0.759419 0.958690
vt 0.994327 0.520174
vt 0.874968 0.958690
vt 0.994954 0.542776
vt 0.969730 0.404545
vt 0.967277 0.403596
vt 0.964872 0.404660
vt 0.963923 0.407112
vt 0.964986 0.409518
vt 0.967439 0.410467
vt 0.969844 0.409404
vt 0.970793 0.406951
vt 0.967453 0.535666
vt 0.969854 0.534593
vt 0.964996 0.534727
vt 0.963923 0.532326
vt 0.964862 0.529869
vt 0.967263 0.528796
vt 0.969720 0.529735
vt 0.970793 0.532136
vn 0.000000 -1.000000 -0.000000
vn 0.000000 -1.000000 -0.000000
vn 0.000000 -1.000000 -0.000000
vn 0.000000 -1.000000 -0.000000
vn 0.000000 -1.000000 -0.000000
vn 0.000000 -1.000000 -0.000000
vn 0.000000 -1.000000 -0.000000
vn 0.000000 -1.000000 -0.000000
vn -0.000000 -1.000000 -0.000000
vn -0.000000 -1.000000 -0.000000
vn -0.000000 -1.000000 -0.000000
vn -0.000000 -1.000000 -0.000000
vn -0.000000 -1.000000 -0.000000
vn -0.000000 -1.000000 -0.000000
vn -0.000000 -1.000000 -0.000000
vn -0.000000 -1.000000 -0.000000
vn -0.000000 -1.000000 -0.000000
vn -0.000000 -1.000000 -0.000000
vn -0.000000 -1.000000 -0.000000
vn -0.000000 -1.000000 -0.000000
vn -0.000000 -1.000000 -0.000000
vn -0.000000 -1.000000 -0.000000
vn -0.000000 -1.000000 -0.000000
vn -0.000000 -1.000000 -0.000000
vn -0.000000 -1.000000 0.000000
vn -0.000000 -1.000000 0.000000
vn -0.000000 -1.000000 0.000000
vn -0.000000 -1.000000 0.000000
vn -0.000000 -1.000000 0.000000
vn -0.000000 -1.000000 0.000000
vn -0.000000 -1.000000 0.000000
vn -0.000000 -1.000000 0.000000
vn -0.000000 -1.000000 0.000000
vn -0.000000 -1.000000 0.000000
vn -0.000000 -1.000000 0.000000
vn -0.000000 -1.000000 0.000000
vn -0.000000 -1.000000 0.000000
vn -0.000000 -1.000000 0.000000
vn -0.000000 -1.000000 0.000000
vn -0.000000 -1.000000 0.000000
vn 0.000000 -1.000000 0.000000
vn 0.000000 -1.000000 0.000000
vn 0.000000 -1.000000 0.000000
vn 0.000000 -1.000000 0.000000
vn 0.000000 -1.000000 0.000000
vn 0.000000 -1.000000 0.000000
vn 0.000000 -1.000000 0.000000
vn 0.000000 -1.000000 0.000000
vn 0.000000 -1.000000 0.000000
vn 0.000000 -1.000000 0.000000
vn 0.000000 -1.000000 0.000000
vn 0.000000 -1.000000 0.000000
vn 0.000000 -1.000000 0.000000
vn 0.000000 -1.000000 0.000000
vn 0.000000 -1.000000 0.000000
vn 0.000000 -1.000000 0.000000
vn 0.000000 -1.000000 -0.000000
vn 0.000000 -1.000000 -0.000000
vn 0.000000 -1.000000 -0.000000
vn 0.000000 -1.000000 -0.000000
vn 0.000000 -1.000000 -0.000000
vn 0.000000 -1.000000 -0.000000
vn 0.000000 -1.000000 -0.000000
vn 0.000000 -1.000000 -0.000000
vn 0.707107 0.000000 -0.707107
vn 0.382687 0.000000 -0.923878
vn 0.382687 0.000000 -0.923878
vn 0.707107 0.000000 -0.707107
vn 0.000000 0.000000 -1.000000
vn 0.000000 0.000000 -1.000000
vn -0.382687 0.000000 -0.923878
vn -0.382687 0.000000 -0.923878
vn -0.707107 0.000000 -0.707107
vn -0.707107 0.000000 -0.707107
vn -0.923878 0.000000 -0.382687
vn -0.923878 0.000000 -0.382687
vn -1.000000 0.000000 -0.000000
vn -1.000000 0.000000 -0.000000
vn -0.923878 0.000000 0.382687
vn -0.923878 0.000000 0.382687
vn -0.707107 0.000000 0.707107
vn -0.707107 0.000000 0.707107
vn -0.382687 0.000000 0.923878
vn -0.382687 0.000000 0.923878
vn 0.000000 0.000000 1.000000
vn 0.000000 0.000000 1.000000
vn 0.382687 0.000000 0.923878
vn 0.382687 0.000000 0.923878
vn 0.707107 0.000000 0.707107
vn 0.707107 0.000000 0.707107
vn 0.923878 0.000000 0.382687
vn 0.923878 0.000000 0.382687
vn 1.000000 0.000000 -0.000000
vn 1.000000 0.000000 -0.000000
vn 0.923878 0.000000 -0.382687
vn 0.923878 0.000000 -0.382687
vn 0.000000 1.000000 0.000000
vn 0.000000 1.000000 0.000000
vn 0.000000 1.000000 0.000000
vn 0.000000 1.000000 0.000000
vn 0.000000 1.000000 0.000000
vn 0.000000 1.000000 0.000000
vn 0.000000 1.000000 0.000000
vn 0.000000 1.000000 0.000000
vn 0.000000 1.000000 -0.000000
vn 0.000000 1.000000 -0.000000
vn 0.000000 1.000000 -0.000000
vn 0.000000 1.000000 -0.000000
vn 0.000000 1.000000 0.000001
vn 0.000000 1.000000 0.000001
vn 0.000000 1.000000 0.000001
vn 0.000000 1.000000 0.000001
vn 0.000000 1.000000 -0.000001
vn 0.000000 1.000000 -0.000001
vn 0.000000 1.000000 -0.000001
vn 0.000000 1.000000 -0.000001
vn 0.000000 1.000000 0.000000
vn 0.000000 1.000000 0.000000
vn 0.000000 1.000000 0.000000
vn 0.000000 1.000000 0.000000
vn 0.000000 1.000000 0.000001
vn 0.000000 1.000000 0.000001
vn 0.000000 1.000000 0.000001
vn 0.000000 1.000000 0.000001
vn 0.000000 1.000000 0.000002
vn 0.000000 1.000000 0.000002
vn 0.000000 1.000000 0.000002
vn 0.000000 1.000000 0.000002
vn 0.000000 1.000000 -0.000001
vn 0.000000 1.000000 -0.000001
vn 0.000000 1.000000 -0.000001
vn 0.000000 1.000000 -0.000001
vn 0.000000 1.000000 0.000000
vn 0.000000 1.000000 0.000000
vn 0.000000 1.000000 0.000000
vn 0.000000 1.000000 0.000000
vn 0.000000 1.000000 0.000000
vn 0.000000 1.000000 0.000000
vn 0.000000 1.000000 0.000000
vn 0.000000 1.000000 0.000000
vn 0.000000 1.000000 -0.000001
vn 0.000000 1.000000 -0.000001
vn 0.000000 1.000000 -0.000001
vn 0.000000 1.000000 -0.000001
vn 0.000000 1.000000 0.000001
vn 0.000000 1.000000 0.000001
vn 0.000000 1.000000 0.000001
vn 0.000000 1.000000 0.000001
vn 0.000000 1.000000 0.000000
vn 0.000000 1.000000 0.000000
vn 0.000000 1.000000 0.000000
vn 0.000000 1.000000 0.000000
vn 0.000000 1.000000 -0.000001
vn 0.000000 1.000000 -0.000001
vn 0.000000 1.000000 -0.000001
vn 0.000000 1.000000 -0.000001
vn 0.000000 1.000000 -0.000002
vn 0.000000 1.000000 -0.000002
vn 0.000000 1.000000 -0.000002
vn 0.000000 1.000000 -0.000002
vn -0.000001 -1.000000 0.000003
vn -0.000001 -1.000000 0.000003
vn -0.000001 -1.000000 0.000003
vn -0.000001 -1.000000 0.000003
vn 0.000001 -1.000000 0.000003
vn 0.000001 -1.000000 0.000003
vn 0.000001 -1.000000 0.000003
vn 0.000001 -1.000000 0.000003
vn 0.000003 -1.000000 0.000001
vn 0.000003 -1.000000 0.000001
vn 0.000003 -1.000000 0.000001
vn 0.000003 -1.000000 0.000001
vn 0.000003 -1.000000 -0.000001
vn 0.000003 -1.000000 -0.000001
vn 0.000003 -1.000000 -0.000001
vn 0.000003 -1.000000 -0.000001
vn 0.000001 -1.000000 -0.000003
vn 0.000001 -1.000000 -0.000003
vn 0.000001 -1.000000 -0.000003
vn 0.000001 -1.000000 -0.000003
vn -0.000001 -1.000000 -0.000003
vn -0.000001 -1.000000 -0.000003
vn -0.000001 -1.000000 -0.000003
vn -0.000001 -1.000000 -0.000003
vn -0.000003 -1.000000 -0.000001
vn -0.000003 -1.000000 -0.000001
vn -0.000003 -1.000000 -0.000001
vn -0.000003 -1.000000 -0.000001
vn -0.000003 -1.000000 0.000001
vn -0.000003 -1.000000 0.000001
vn -0.000003 -1.000000 0.000001
vn -0.000003 -1.000000 0.000001
vn 0.000000 1.000000 -0.000002
vn 0.000000 1.000000 -0.000002
vn 0.000000 1.000000 -0.000002
vn 0.000000 1.000000 -0.000002
vn 0.000000 1.000000 0.000000
vn 0.000000 1.000000 0.000000
vn 0.000000 1.000000 0.000000
vn 0.000000 1.000000 0.000000
vn 0.000000 1.000000 0.000013
vn 0.000000 1.000000 0.000013
vn 0.000000 1.000000 0.000013
vn 0.000000 1.000000 0.000013
vn 0.000000 1.000000 -0.000007
vn 0.000000 1.000000 -0.000007
vn 0.000000 1.000000 -0.000007
vn 0.000000 1.000000 -0.000007
vn 0.000000 1.000000 -0.000001
vn 0.000000 1.000000 -0.000001
vn 0.000000 1.000000 -0.000001
vn 0.000000 1.000000 -0.000001
vn 0.000000 1.000000 0.000000
vn 0.000000 1.000000 0.000000
vn 0.000000 1.000000 0.000000
vn 0.000000 1.000000 0.000000
vn 0.000000 1.000000 -0.000013
vn 0.000000 1.000000 -0.000013
vn 0.000000 1.000000 -0.000013
vn 0.000000 1.000000 -0.000013
vn 0.000000 1.000000 0.000007
vn 0.000000 1.000000 0.000007
vn 0.000000 1.000000 0.000007
vn 0.000000 1.000000 0.000007
g pCylinder1
f 24/85/1 51/37/2 40/53/3 1/1/4
f 51/37/5 25/86/6 2/4/7 40/53/8
f 2/4/9 25/86/10 52/38/11 41/55/12
f 52/38/13 26/87/14 3/6/15 41/55/16
f 3/6/17 26/87/18 53/39/19 42/57/20
f 53/39/21 27/88/22 4/8/23 42/57/24
f 4/8/25 27/88/26 54/40/27 43/59/28
f 54/40/29 28/89/30 5/10/31 43/59/32
f 5/10/33 28/89/34 55/41/35 44/61/36
f 55/41/37 29/90/38 6/12/39 44/61/40
f 6/12/41 29/90/42 56/42/43 45/63/44
f 56/42/45 30/91/46 7/14/47 45/63/48
f 7/14/49 30/91/50 57/43/51 46/65/52
f 57/43/53 31/92/54 8/16/55 46/65/56
f 8/16/57 31/92/58 58/44/59 47/67/60
f 58/44/61 24/85/62 1/1/63 47/67/64
f 1/2/65 40/54/66 48/69/67 9/18/68
f 40/54/66 2/5/69 10/21/70 48/69/67
f 10/21/70 2/5/69 41/56/71 49/71/72
f 41/56/71 3/7/73 11/23/74 49/71/72
f 11/23/74 3/7/73 42/58/75 50/73/76
f 42/58/75 4/9/77 12/25/78 50/73/76
f 12/25/78 4/9/77 43/60/79 19/75/80
f 43/60/79 5/11/81 13/27/82 19/75/80
f 13/27/82 5/11/81 44/62/83 20/77/84
f 44/62/83 6/13/85 14/29/86 20/77/84
f 14/29/86 6/13/85 45/64/87 21/79/88
f 45/64/87 7/15/89 15/31/90 21/79/88
f 15/31/90 7/15/89 46/66/91 22/81/92
f 46/66/91 8/17/93 16/33/94 22/81/92
f 16/33/94 8/17/93 47/68/95 23/83/96
f 47/68/95 1/3/65 9/20/68 23/83/96
f 9/19/97 48/70/98 59/45/99 33/94/100
f 48/70/101 10/22/102 32/93/103 59/45/104
f 32/93/105 10/22/106 49/72/107 60/46/108
f 49/72/109 11/24/110 34/95/111 60/46/112
f 34/95/113 11/24/114 50/74/115 61/47/116
f 50/74/117 12/26/118 35/96/119 61/47/120
f 35/96/121 12/26/122 19/76/123 62/48/124
f 19/76/125 13/28/126 36/97/127 62/48/128
f 36/97/129 13/28/130 20/78/131 63/49/132
f 20/78/133 14/30/134 37/98/135 63/49/136
f 37/98/137 14/30/138 21/80/139 64/50/140
f 21/80/141 15/32/142 38/99/143 64/50/144
f 38/99/145 15/32/146 22/82/147 65/51/148
f 22/82/149 16/34/150 39/100/151 65/51/152
f 39/100/153 16/34/154 23/84/155 66/52/156
f 23/84/157 9/19/158 33/94/159 66/52/160
f 17/35/161 25/86/162 51/37/163 24/85/164
f 17/35/165 26/87/166 52/38/167 25/86/168
f 17/35/169 27/88/170 53/39/171 26/87/172
f 17/35/173 28/89/174 54/40/175 27/88/176
f 17/35/177 29/90/178 55/41/179 28/89/180
f 17/35/181 30/91/182 56/42/183 29/90/184
f 17/35/185 31/92/186 57/43/187 30/91/188
f 17/35/189 24/85/190 58/44/191 31/92/192
f 18/36/193 33/94/194 59/45/195 32/93/196
f 18/36/197 32/93/198 60/46/199 34/95/200
f 18/36/201 34/95/202 61/47/203 35/96/204
f 18/36/205 35/96/206 62/48/207 36/97/208
f 18/36/209 36/97/210 63/49/211 37/98/212
f 18/36/213 37/98/214 64/50/215 38/99/216
f 18/36/217 38/99/218 65/51/219 39/100/220
f 18/36/221 39/100/222 66/52/223 33/94/224
