# This file uses centimeters as units for non-parametric coordinates.

mtllib DeathPlatform.mtl
g default
v 0.000000 -0.245452 -0.000000
v 0.000000 0.245452 -0.000000
v 0.811193 -0.245452 0.775464
v 0.882234 -0.139251 0.850381
v 0.000000 -0.155310 2.118994
v 0.000000 -0.245452 1.988894
v 2.410813 -0.155311 -0.000000
v 2.241545 -0.245452 -0.000000
v 0.811193 0.245452 0.775464
v 0.882234 0.139251 0.850381
v 0.000000 0.155310 2.118994
v 0.000000 0.245452 1.988894
v 2.410813 0.155310 -0.000000
v 2.241545 0.245452 -0.000000
v 0.897291 -0.245452 -0.715601
v 0.882235 -0.139251 -0.850382
v 0.000000 -0.155310 -2.118994
v 0.000000 -0.245452 -1.988894
v 0.811194 0.245452 -0.775464
v 0.882235 0.139251 -0.850382
v 0.000000 0.155310 -2.118994
v 0.000000 0.245452 -1.988894
v -0.811193 -0.245452 0.775464
v -0.882234 -0.139251 0.850381
v -2.410813 -0.155311 -0.000000
v -2.241545 -0.245452 -0.000000
v -0.811193 0.245452 0.775464
v -0.882234 0.139251 0.850381
v -2.410813 0.155310 -0.000000
v -2.241545 0.245452 -0.000000
v -0.897291 -0.245452 -0.715601
v -0.882235 -0.139251 -0.850382
v -0.811194 0.245452 -0.775464
v -0.882235 0.139251 -0.850382
vt 0.129074 0.748473
vt 0.129451 0.513746
vt 0.150369 0.748059
vt 0.131814 0.958790
vt 0.212239 0.748172
vt 0.211024 0.958503
vt 0.190941 0.747912
vt 0.210161 0.513454
vt 0.148850 0.974329
vt 0.194101 0.974165
vt 0.147102 0.492091
vt 0.192353 0.491927
vt 0.769366 0.813346
vt 0.644420 0.985605
vt 0.655509 0.695848
vt 0.982074 0.708345
vt 0.322378 0.335844
vt 0.612205 0.344913
vt 0.431682 0.457589
vt 0.312157 0.662488
vt 0.722761 0.039194
vt 0.737646 0.059067
vt 0.481699 0.063421
vt 0.502849 0.045159
vt 0.947794 0.034593
vt 0.963780 0.051217
vt 0.739451 0.120920
vt 0.738609 0.099637
vt 0.964809 0.096466
vt 0.949596 0.113800
vt 0.504845 0.125862
vt 0.482818 0.108668
vt 0.790223 0.596596
vt 0.666597 0.406090
vt 0.205676 0.450517
vt 0.032550 0.326774
vt 0.533004 0.804301
vt 0.328943 0.683351
vt 0.332599 0.009199
vt 0.439080 0.221170
vt 0.744925 0.134886
vt 0.745380 0.156180
vt 0.489491 0.163349
vt 0.510409 0.144829
vt 0.955179 0.129050
vt 0.971399 0.145438
vt 0.748014 0.217994
vt 0.746887 0.196725
vt 0.973080 0.190659
vt 0.958121 0.208206
vt 0.513407 0.225485
vt 0.491172 0.208569
vt 0.528774 0.586591
vt 0.213074 0.214098
vt 0.030995 0.716594
vt 0.036457 0.951187
vt 0.054610 0.972431
vt 0.052295 0.716492
vt 0.045430 0.490373
vt 0.113381 0.729644
vt 0.117169 0.949605
vt 0.099863 0.971544
vt 0.092867 0.715655
vt 0.090681 0.489395
vt 0.107997 0.504627
vt 0.028789 0.506340
vt 0.491172 0.208569
vt 0.054610 0.972431
vt 0.052295 0.716492
vt 0.964809 0.096466
vt 0.045430 0.490373
vt 0.963780 0.051217
vt 0.090681 0.489395
vt 0.092867 0.715655
vt 0.489491 0.163349
vt 0.099863 0.971544
vt 0.746887 0.196725
vt 0.194101 0.974165
vt 0.973080 0.190659
vt 0.148850 0.974329
vt 0.971399 0.145438
vt 0.745380 0.156180
vt 0.192353 0.491927
vt 0.482818 0.108668
vt 0.738609 0.099637
vt 0.737646 0.059067
vt 0.147102 0.492091
vt 0.481699 0.063421
vt 0.190941 0.747912
vt 0.150369 0.748059
vn 0.351587 -0.677019 0.646553
vn 0.351587 -0.677019 0.646553
vn 0.351587 -0.677019 0.646553
vn 0.351587 -0.677019 0.646553
vn 0.620811 -0.662422 0.419275
vn 0.620811 -0.662422 0.419275
vn 0.620811 -0.662422 0.419275
vn 0.620811 -0.662422 0.419275
vn 0.620810 0.662422 0.419275
vn 0.620810 0.662422 0.419275
vn 0.620810 0.662422 0.419275
vn 0.620810 0.662422 0.419275
vn 0.351587 0.677019 0.646553
vn 0.351587 0.677019 0.646553
vn 0.351587 0.677019 0.646553
vn 0.351587 0.677019 0.646553
vn 0.820990 0.000000 0.570943
vn 0.820990 0.000000 0.570943
vn 0.820990 0.000000 0.570943
vn 0.820990 0.000000 0.570943
vn 0.486154 0.000000 0.873873
vn 0.486154 0.000000 0.873873
vn 0.486154 0.000000 0.873873
vn 0.486154 0.000000 0.873873
vn 0.000000 -1.000000 0.000000
vn 0.000000 -1.000000 0.000000
vn 0.000000 -1.000000 0.000000
vn 0.000000 -1.000000 0.000000
vn 0.000000 1.000000 0.000000
vn 0.000000 1.000000 0.000000
vn 0.000000 1.000000 0.000000
vn 0.000000 1.000000 0.000000
vn 0.339346 -0.698796 -0.629705
vn 0.339346 -0.698796 -0.629705
vn 0.339346 -0.698796 -0.629705
vn 0.339346 -0.698796 -0.629705
vn 0.670722 -0.577114 -0.465910
vn 0.670722 -0.577114 -0.465910
vn 0.670722 -0.577114 -0.465910
vn 0.670722 -0.577114 -0.465910
vn 0.620810 0.662422 -0.419276
vn 0.620810 0.662422 -0.419276
vn 0.620810 0.662422 -0.419276
vn 0.620810 0.662422 -0.419276
vn 0.351588 0.677020 -0.646553
vn 0.351588 0.677020 -0.646553
vn 0.351588 0.677020 -0.646553
vn 0.351588 0.677020 -0.646553
vn 0.820990 0.000000 -0.570943
vn 0.820990 0.000000 -0.570943
vn 0.820990 0.000000 -0.570943
vn 0.820990 0.000000 -0.570943
vn 0.486155 0.000000 -0.873873
vn 0.486155 0.000000 -0.873873
vn 0.486155 0.000000 -0.873873
vn 0.486155 0.000000 -0.873873
vn 0.000000 -1.000000 -0.000000
vn 0.000000 -1.000000 -0.000000
vn 0.000000 1.000000 -0.000000
vn 0.000000 1.000000 -0.000000
vn -0.351587 -0.677019 0.646553
vn -0.351587 -0.677019 0.646553
vn -0.351587 -0.677019 0.646553
vn -0.351587 -0.677019 0.646553
vn -0.620811 -0.662422 0.419275
vn -0.620811 -0.662422 0.419275
vn -0.620811 -0.662422 0.419275
vn -0.620811 -0.662422 0.419275
vn -0.620810 0.662422 0.419275
vn -0.620810 0.662422 0.419275
vn -0.620810 0.662422 0.419275
vn -0.620810 0.662422 0.419275
vn -0.351587 0.677020 0.646553
vn -0.351587 0.677020 0.646553
vn -0.351587 0.677020 0.646553
vn -0.351587 0.677020 0.646553
vn -0.820990 0.000000 0.570943
vn -0.820990 0.000000 0.570943
vn -0.820990 0.000000 0.570943
vn -0.820990 0.000000 0.570943
vn -0.486154 0.000000 0.873873
vn -0.486154 0.000000 0.873873
vn -0.486154 0.000000 0.873873
vn -0.486154 0.000000 0.873873
vn -0.000000 -1.000000 0.000000
vn -0.000000 -1.000000 0.000000
vn -0.000000 1.000000 -0.000000
vn -0.000000 1.000000 0.000000
vn -0.339346 -0.698796 -0.629705
vn -0.339346 -0.698796 -0.629705
vn -0.339346 -0.698796 -0.629705
vn -0.339346 -0.698796 -0.629705
vn -0.670722 -0.577114 -0.465910
vn -0.670722 -0.577114 -0.465910
vn -0.670722 -0.577114 -0.465910
vn -0.670722 -0.577114 -0.465910
vn -0.620810 0.662422 -0.419276
vn -0.620810 0.662422 -0.419276
vn -0.620810 0.662422 -0.419276
vn -0.620810 0.662422 -0.419276
vn -0.351588 0.677020 -0.646553
vn -0.351588 0.677020 -0.646553
vn -0.351588 0.677020 -0.646553
vn -0.351588 0.677020 -0.646553
vn -0.820990 0.000000 -0.570943
vn -0.820990 0.000000 -0.570943
vn -0.820990 0.000000 -0.570943
vn -0.820990 0.000000 -0.570943
vn -0.486155 0.000000 -0.873873
vn -0.486155 0.000000 -0.873873
vn -0.486155 0.000000 -0.873873
vn -0.486155 0.000000 -0.873873
vn -0.000000 -1.000000 -0.000000
vn -0.000000 1.000000 -0.000000
s off
g pCylinder7
usemtl initialShadingGroup
f 3/1/1 8/2/2 7/11/3 4/90/4
f 4/90/5 5/80/6 6/4/7 3/1/8
f 9/5/9 12/6/10 11/10/11 10/89/12
f 10/89/13 13/83/14 14/8/15 9/5/16
f 4/3/17 10/7/18 11/78/19 5/9/20
f 7/87/21 13/12/22 10/7/23 4/3/24
s 1
f 3/13/25 6/14/26 1/15/27 8/16/28
s 2
f 2/17/29 12/18/30 9/19/31 14/20/32
s off
f 15/21/33 16/86/34 7/23/35 8/24/36
f 16/86/37 15/21/38 18/25/39 17/26/40
f 19/27/41 20/85/42 21/70/43 22/30/44
f 20/85/45 19/27/46 14/31/47 13/84/48
f 16/22/49 17/72/50 21/29/51 20/28/52
f 7/88/53 16/22/54 20/28/55 13/32/56
s 1
f 15/33/57 8/16/28 1/15/27 18/34/58
s 2
f 2/17/29 14/20/32 19/35/59 22/36/60
s off
f 23/41/61 24/82/62 25/75/63 26/44/64
f 24/82/65 23/41/66 6/45/67 5/81/68
f 27/47/69 28/77/70 11/49/71 12/50/72
f 28/77/73 27/47/74 30/51/75 29/52/76
f 24/42/77 5/46/78 11/79/79 28/48/80
f 25/43/81 24/42/82 28/48/83 29/67/84
s 1
f 23/37/85 26/38/86 1/15/27 6/14/26
s 2
f 2/17/29 30/39/87 27/40/88 12/18/30
s off
f 31/60/89 26/61/90 25/76/91 32/74/92
f 32/74/93 17/64/94 18/65/95 31/60/96
f 33/55/97 22/66/98 21/71/99 34/69/100
f 34/69/101 29/57/102 30/56/103 33/55/104
f 32/63/105 34/58/106 21/59/107 17/73/108
f 25/62/109 29/68/110 34/58/111 32/63/112
s 1
f 31/53/113 18/34/58 1/15/27 26/38/86
s 2
f 2/17/29 22/36/60 33/54/114 30/39/87
